<svg xmlns="http://www.w3.org/2000/svg" viewBox="0 0 640 427" width="640" height="427" role="img" aria-label="Imagen de referencia pendiente de Kia Picanto">
  <defs>
    <linearGradient id="fondo" x1="0" y1="0" x2="0.35" y2="1">
      <stop offset="0%" stop-color="#2f4f7a" stop-opacity="0.95"/>
      <stop offset="100%" stop-color="#2f4f7a" stop-opacity="0.6"/>
    </linearGradient>
    <pattern id="rejilla" width="32" height="32" patternUnits="userSpaceOnUse">
      <path d="M32 0 L0 0 0 32" fill="none" stroke="#faf8f5" stroke-opacity="0.07" stroke-width="1"/>
    </pattern>
  </defs>
  <rect width="640" height="427" fill="url(#fondo)"/>
  <rect width="640" height="427" fill="url(#rejilla)"/>
  <g transform="translate(0,60)">
    <ellipse cx="320" cy="258" rx="248" ry="15" fill="#faf8f5" opacity="0.10"/>
    <path d="M70 250 L70 208 Q70 194 88 188 L150 170 Q200 126 258 124 L350 124 Q400 128 442 172 L536 190 Q556 196 556 212 L556 250 Z" fill="#faf8f5" opacity="0.20"/>
    <circle cx="170" cy="250" r="34" fill="#faf8f5" opacity="0.26"/>
    <circle cx="170" cy="250" r="15" fill="#faf8f5" opacity="0.12"/>
    <circle cx="462" cy="250" r="34" fill="#faf8f5" opacity="0.26"/>
    <circle cx="462" cy="250" r="15" fill="#faf8f5" opacity="0.12"/>
  </g>
  <text x="608" y="46" text-anchor="end" font-family="system-ui, sans-serif" font-size="12.5" letter-spacing="1.6" fill="#faf8f5" opacity="0.7">FOTO PENDIENTE · VISTA FRONTAL</text>
  <text x="32" y="368" font-family="system-ui, sans-serif" font-size="23" font-weight="700" fill="#faf8f5">Kia Picanto</text>
  <text x="32" y="394" font-family="system-ui, sans-serif" font-size="15" fill="#faf8f5" opacity="0.8">Ion 1.2 MT · 2021</text>
</svg>
