<svg xmlns="http://www.w3.org/2000/svg" viewBox="0 0 640 427" width="640" height="427" role="img" aria-label="Imagen de referencia pendiente de Toyota Hilux">
  <defs>
    <linearGradient id="fondo" x1="0" y1="0" x2="0.35" y2="1">
      <stop offset="0%" stop-color="#c9c5bd" stop-opacity="0.95"/>
      <stop offset="100%" stop-color="#c9c5bd" stop-opacity="0.6"/>
    </linearGradient>
    <pattern id="rejilla" width="32" height="32" patternUnits="userSpaceOnUse">
      <path d="M32 0 L0 0 0 32" fill="none" stroke="#17130f" stroke-opacity="0.07" stroke-width="1"/>
    </pattern>
  </defs>
  <rect width="640" height="427" fill="url(#fondo)"/>
  <rect width="640" height="427" fill="url(#rejilla)"/>
  <g transform="translate(0,60)">
    <ellipse cx="320" cy="258" rx="248" ry="15" fill="#17130f" opacity="0.10"/>
    <path d="M45 250 L45 205 Q45 190 63 184 L128 164 Q180 120 236 118 L318 118 Q340 120 344 142 L344 186 L575 186 Q590 190 590 206 L590 250 Z" fill="#17130f" opacity="0.20"/>
    <circle cx="170" cy="250" r="34" fill="#17130f" opacity="0.26"/>
    <circle cx="170" cy="250" r="15" fill="#17130f" opacity="0.12"/>
    <circle cx="462" cy="250" r="34" fill="#17130f" opacity="0.26"/>
    <circle cx="462" cy="250" r="15" fill="#17130f" opacity="0.12"/>
  </g>
  <text x="32" y="48" font-family="system-ui, sans-serif" font-size="23" font-weight="700" fill="#17130f">Toyota Hilux</text>
  <text x="32" y="74" font-family="system-ui, sans-serif" font-size="15" fill="#17130f" opacity="0.8">2.4 Diésel 4x4 MT · 2019</text>
  <text x="32" y="398" font-family="system-ui, sans-serif" font-size="12.5" letter-spacing="1.6" fill="#17130f" opacity="0.68">FOTO PENDIENTE · INTERIOR</text>
</svg>
